<svg width="64" height="49" viewBox="0 0 64 49" fill="none" xmlns="http://www.w3.org/2000/svg">
<g clip-path="url(#clip0_2071_4)">
<g filter="url(#filter0_ii_2071_4)">
<path fill-rule="evenodd" clip-rule="evenodd" d="M14.2727 0.198243L6.4 0.198243C4.15979 0.198242 3.03969 0.198242 2.18404 0.634216C1.43139 1.01771 0.819467 1.62963 0.435974 2.38228C-1.69117e-07 3.23793 -2.31435e-07 4.35803 -3.56072e-07 6.59824L-8.49718e-07 15.471L7.44407 15.471C9.77879 15.471 11.9517 14.2782 13.2051 12.3085C13.9024 11.2128 14.2727 9.94102 14.2727 8.64232L14.2727 0.198243ZM-1.0318e-06 18.7437L-1.63874e-06 29.6528L7.44407 29.6528C7.72204 29.6528 7.99845 29.6642 8.27273 29.6868L8.27273 18.7097C7.99845 18.7323 7.72204 18.7437 7.44407 18.7437L-1.0318e-06 18.7437ZM-1.82082e-06 32.9255L-2.31447e-06 41.7982C-2.43911e-06 44.0385 -2.50142e-06 45.1586 0.435971 46.0142C0.819465 46.7669 1.43139 47.3788 2.18404 47.7623C3.03968 48.1982 4.15979 48.1982 6.4 48.1982L14.2727 48.1982L14.2727 39.7542C14.2727 38.4555 13.9024 37.1837 13.2051 36.088C11.9517 34.1183 9.77879 32.9255 7.44407 32.9255L-1.82082e-06 32.9255ZM17.5455 48.1982L30.0909 48.1982L30.0909 0.198244L17.5455 0.198243L17.5455 8.64232C17.5455 10.5634 16.9976 12.4447 15.9662 14.0655C14.8826 15.7683 13.3344 17.0786 11.5455 17.8736L11.5455 30.5229C13.3344 31.3178 14.8826 32.6282 15.9662 34.331C16.9976 35.9518 17.5455 37.8331 17.5455 39.7542L17.5455 48.1982ZM33.3636 0.198244L33.3636 48.1982L46.4545 48.1982L46.4545 39.7542C46.4545 37.8331 47.0024 35.9518 48.0338 34.331C49.0058 32.8036 50.3515 31.592 51.9096 30.7848C51.9093 30.7711 51.9091 30.7574 51.9091 30.7437L51.9091 17.6528C51.9091 17.6391 51.9093 17.6254 51.9096 17.6117C50.3515 16.8045 49.0058 15.5929 48.0338 14.0655C47.0024 12.4447 46.4545 10.5634 46.4545 8.64232L46.4545 0.198245L33.3636 0.198244ZM49.7273 0.198245L49.7273 8.64232C49.7273 9.94102 50.0976 11.2128 50.7949 12.3085C52.0483 14.2782 54.2212 15.471 56.5559 15.471L64 15.471L64 6.59825C64 4.35804 64 3.23793 63.564 2.38228C63.1805 1.62964 62.5686 1.01771 61.816 0.63422C60.9603 0.198246 59.8402 0.198246 57.6 0.198245L49.7273 0.198245ZM64 18.7437L56.5559 18.7437C56.0927 18.7437 55.6337 18.712 55.1818 18.65L55.1818 29.7465C55.6337 29.6845 56.0927 29.6528 56.5559 29.6528L64 29.6528L64 18.7437ZM64 32.9255L56.5559 32.9255C54.2212 32.9255 52.0483 34.1183 50.7949 36.088C50.0976 37.1837 49.7273 38.4555 49.7273 39.7542L49.7273 48.1982L57.6 48.1982C59.8402 48.1982 60.9603 48.1982 61.816 47.7623C62.5686 47.3788 63.1805 46.7669 63.564 46.0142C64 45.1586 64 44.0385 64 41.7982L64 32.9255Z" fill="url(#paint0_linear_2071_4)"/>
</g>
</g>
<defs>
<filter id="filter0_ii_2071_4" x="0" y="0.198242" width="64" height="48" filterUnits="userSpaceOnUse" color-interpolation-filters="sRGB">
<feFlood flood-opacity="0" result="BackgroundImageFix"/>
<feBlend mode="normal" in="SourceGraphic" in2="BackgroundImageFix" result="shape"/>
<feColorMatrix in="SourceAlpha" type="matrix" values="0 0 0 0 0 0 0 0 0 0 0 0 0 0 0 0 0 0 127 0" result="hardAlpha"/>
<feOffset dx="0.4" dy="0.4"/>
<feComposite in2="hardAlpha" operator="arithmetic" k2="-1" k3="1"/>
<feColorMatrix type="matrix" values="0 0 0 0 0.054902 0 0 0 0 0.054902 0 0 0 0 0.0862745 0 0 0 0.64 0"/>
<feBlend mode="normal" in2="shape" result="effect1_innerShadow_2071_4"/>
<feColorMatrix in="SourceAlpha" type="matrix" values="0 0 0 0 0 0 0 0 0 0 0 0 0 0 0 0 0 0 127 0" result="hardAlpha"/>
<feOffset dx="-0.4" dy="-0.4"/>
<feComposite in2="hardAlpha" operator="arithmetic" k2="-1" k3="1"/>
<feColorMatrix type="matrix" values="0 0 0 0 1 0 0 0 0 0.977309 0 0 0 0 0.969745 0 0 0 0.64 0"/>
<feBlend mode="normal" in2="effect1_innerShadow_2071_4" result="effect2_innerShadow_2071_4"/>
</filter>
<linearGradient id="paint0_linear_2071_4" x1="19.4595" y1="0.198241" x2="58.8632" y2="20.7876" gradientUnits="userSpaceOnUse">
<stop stop-color="#E0E0E0"/>
<stop offset="0.5" stop-color="#BCBCBC"/>
<stop offset="0.75" stop-color="#B9B9B9"/>
<stop offset="1" stop-color="#A0A0A0"/>
</linearGradient>
<clipPath id="clip0_2071_4">
<rect width="64" height="48" fill="white" transform="translate(0 0.198242)"/>
</clipPath>
</defs>
</svg>
