<svg width="50" height="14" viewBox="0 0 50 14" fill="none" xmlns="http://www.w3.org/2000/svg">
<g filter="url(#filter0_ii_2071_9)">
<path d="M0.15918 0.700358L4.83502 0.700358C5.26009 0.700358 6.53532 0.564963 7.10209 2.46049C7.52717 3.67904 8.09393 5.57456 8.94409 8.41785L9.22747 8.41785C10.0776 5.43917 10.7861 3.40825 11.0695 2.46049C11.6362 0.564964 13.0532 0.700358 13.6199 0.700358L18.0124 0.700359L18.0124 13.6982L13.4782 13.6982L13.4782 5.98075L13.1948 5.98075L10.7861 13.6982L7.38547 13.6982L4.97671 5.98075L4.55163 5.98075L4.55163 13.6982L0.159179 13.6982M19.8544 0.700359L24.3885 0.700359L24.3885 8.41785L24.8136 8.41785L27.7891 2.05431C28.3559 0.835754 29.6311 0.700359 29.6311 0.700359L33.8819 0.70036L33.8819 13.6982L29.3477 13.6982L29.3477 5.98075L29.0644 5.98075L26.0888 12.3443C25.5221 13.5628 24.1051 13.6982 24.1051 13.6982L19.8544 13.6982M39.9746 9.7718L39.9746 13.6982L35.7239 13.6982L35.7239 6.92851L49.6097 6.92851C49.0429 8.55325 47.0592 9.7718 44.7922 9.7718" fill="url(#paint0_linear_2071_9)"/>
<path d="M49.8931 6.11615C50.4599 3.67904 48.7596 0.70036 45.0756 0.70036L35.4405 0.70036C35.7239 3.54365 38.2743 6.11615 40.9665 6.11615" fill="url(#paint1_linear_2071_9)"/>
</g>
<defs>
<filter id="filter0_ii_2071_9" x="0.15918" y="0.698242" width="49.8408" height="13" filterUnits="userSpaceOnUse" color-interpolation-filters="sRGB">
<feFlood flood-opacity="0" result="BackgroundImageFix"/>
<feBlend mode="normal" in="SourceGraphic" in2="BackgroundImageFix" result="shape"/>
<feColorMatrix in="SourceAlpha" type="matrix" values="0 0 0 0 0 0 0 0 0 0 0 0 0 0 0 0 0 0 127 0" result="hardAlpha"/>
<feOffset dx="-0.322513" dy="-0.322513"/>
<feComposite in2="hardAlpha" operator="arithmetic" k2="-1" k3="1"/>
<feColorMatrix type="matrix" values="0 0 0 0 0.054902 0 0 0 0 0.054902 0 0 0 0 0.0862745 0 0 0 0.64 0"/>
<feBlend mode="normal" in2="shape" result="effect1_innerShadow_2071_9"/>
<feColorMatrix in="SourceAlpha" type="matrix" values="0 0 0 0 0 0 0 0 0 0 0 0 0 0 0 0 0 0 127 0" result="hardAlpha"/>
<feOffset dx="0.322513" dy="0.322513"/>
<feComposite in2="hardAlpha" operator="arithmetic" k2="-1" k3="1"/>
<feColorMatrix type="matrix" values="0 0 0 0 1 0 0 0 0 0.977309 0 0 0 0 0.969745 0 0 0 0.64 0"/>
<feBlend mode="normal" in2="effect1_innerShadow_2071_9" result="effect2_innerShadow_2071_9"/>
</filter>
<linearGradient id="paint0_linear_2071_9" x1="15.3135" y1="0.698242" x2="27.3058" y2="18.7165" gradientUnits="userSpaceOnUse">
<stop stop-color="#E0E0E0"/>
<stop offset="0.5" stop-color="#BCBCBC"/>
<stop offset="0.75" stop-color="#B9B9B9"/>
<stop offset="1" stop-color="#A0A0A0"/>
</linearGradient>
<linearGradient id="paint1_linear_2071_9" x1="15.3135" y1="0.698242" x2="27.3058" y2="18.7165" gradientUnits="userSpaceOnUse">
<stop stop-color="#E0E0E0"/>
<stop offset="0.5" stop-color="#BCBCBC"/>
<stop offset="0.75" stop-color="#B9B9B9"/>
<stop offset="1" stop-color="#A0A0A0"/>
</linearGradient>
</defs>
</svg>
